<svg width="1151" height="141" viewBox="0 0 1151 141" fill="none" xmlns="http://www.w3.org/2000/svg">
<path d="M126.261 104.034H86.063C71.3969 104.034 61.1707 101.021 55.3443 94.981C49.5312 88.9413 46.6247 80.875 46.6247 70.7554C46.6247 48.2631 59.7708 37.0102 86.063 37.0102H126.261C144.9 37.0102 156.873 42.57 162.193 53.6895H210.911C207.751 38.0235 199.991 25.2374 187.632 15.3445C175.286 5.45158 158.353 0.505127 136.874 0.505127H75.1567C54.051 0.505127 36.2518 5.98489 21.7457 16.9577C7.25302 27.9306 0 45.9165 0 70.9421C0 90.7812 4.25315 105.461 12.7461 114.967C21.2524 124.473 30.4387 131.073 40.3316 134.726C50.2245 138.392 61.8373 140.219 75.1701 140.219H136.887C159.193 140.219 176.486 135.179 188.779 125.1C201.071 115.02 208.578 101.821 211.298 85.5281H163.14C158.46 97.8476 146.18 104.007 126.261 104.007" fill="white"/>
<path d="M587.801 91.5145L529.79 2.41171H462.58V138.339H509.218V46.8764L568.842 138.339H607.8L665.905 46.6765V138.339H712.449V2.41171H644.292L587.801 91.5145Z" fill="white"/>
<path d="M917.2 14.8779C907.214 6.43822 891.228 2.22507 869.242 2.22507H739.568V138.339H786.206V103.367H869.722C891.015 103.367 906.747 98.9142 916.934 89.9946C927.107 81.0883 932.186 68.4489 932.186 52.0762C932.186 35.7036 927.2 23.3042 917.214 14.8779M881.322 63.5957C878.509 65.529 873.602 66.489 866.576 66.489H786.193V39.3835H866.576C873.522 39.3835 878.429 40.3834 881.269 42.37C884.108 44.3566 885.535 47.9164 885.535 53.0362C885.535 58.156 884.122 61.6758 881.322 63.6091" fill="white"/>
<path d="M1150.11 2.41171H1085.83L1039.67 42.61L993.41 2.41171H929.146L1007.45 70.5688L929.146 138.339H993.797L1039.67 98.5275L1085.46 138.339H1150.11L1071.9 70.5688L1150.11 2.41171Z" fill="white"/>
<mask id="mask0_0_24" style="mask-type:luminance" maskUnits="userSpaceOnUse" x="222" y="0" width="222" height="141">
<path d="M269.442 70.1021C269.442 51.1563 284.801 35.7969 303.747 35.7969H362.558C381.504 35.7969 396.863 51.1563 396.863 70.1021C396.863 89.048 381.504 104.407 362.558 104.407H303.747C284.801 104.407 269.442 89.048 269.442 70.1021ZM298.12 0.518452C284.788 0.518452 273.175 2.39838 263.282 6.15821C253.389 9.91805 245.549 15.1312 239.776 21.7975C233.99 28.4639 229.75 35.8769 227.03 44.0232C224.31 52.1696 222.95 61.1025 222.95 70.7954C222.95 80.4883 224.31 89.3946 227.03 97.4743C229.75 105.567 234.003 112.874 239.776 119.42C245.563 125.953 253.402 131.059 263.282 134.726C273.175 138.392 284.788 140.219 298.12 140.219H367.597C380.81 140.219 392.356 138.353 402.236 134.619C412.129 130.886 420.022 125.753 425.942 119.22C431.848 112.687 436.221 105.367 439.074 97.2743C441.914 89.1813 443.341 80.355 443.341 70.7821C443.341 61.2092 441.914 52.3429 439.074 44.1966C436.234 36.0503 431.888 28.6372 426.048 21.9709C420.195 15.3045 412.276 10.0647 402.249 6.23821C392.236 2.41171 380.69 0.505127 367.611 0.505127H298.134L298.12 0.518452Z" fill="white"/>
</mask>
<g mask="url(#mask0_0_24)">
<path d="M388.11 -95.0046L162.397 35.5207L278.172 235.726L503.884 105.2L388.11 -95.0046Z" fill="url(#paint0_linear_0_24)"/>
</g>
<defs>
<linearGradient id="paint0_linear_0_24" x1="133.423" y1="180.814" x2="642.61" y2="-113.639" gradientUnits="userSpaceOnUse">
<stop stop-color="#FD0000"/>
<stop offset="0.21" stop-color="#FD0000"/>
<stop offset="0.41" stop-color="#0B56C1"/>
<stop offset="0.45" stop-color="#1C8E99"/>
<stop offset="0.49" stop-color="#2BBE77"/>
<stop offset="0.53" stop-color="#36E05F"/>
<stop offset="0.56" stop-color="#3CF551"/>
<stop offset="0.58" stop-color="#3FFD4C"/>
<stop offset="1" stop-color="#3FFD4C"/>
</linearGradient>
</defs>
</svg>
