<svg width="581" height="133" viewBox="0 0 581 133" fill="none" xmlns="http://www.w3.org/2000/svg">
<g clip-path="url(#clip0_1_6)">
<path opacity="0.981" fill-rule="evenodd" clip-rule="evenodd" d="M75.5 14.5C80.8333 14.5 86.1667 14.5 91.5 14.5C100.84 17.6867 108.173 23.5201 113.5 32C111.431 33.8744 109.098 34.8744 106.5 35C99.7122 23.6128 89.7122 19.2795 76.5 22C66.8988 24.7913 60.2321 30.7913 56.5 40C49.5231 39.6031 42.5231 39.6031 35.5 40C21.3242 45.1896 14.8242 55.3563 16 70.5C17.3923 76.2137 20.059 81.2137 24 85.5C39.7017 69.7268 57.8683 57.5601 78.5 49C79.4231 46.9592 79.7564 44.7925 79.5 42.5C93.2663 46.9199 95.433 43.9199 86 33.5C85.3828 32.5509 85.5494 31.7175 86.5 31C93.1786 29.96 98.512 32.2934 102.5 38C107.136 37.8763 111.802 37.7096 116.5 37.5C116.5 39.5 116.5 41.5 116.5 43.5C113.731 45.2069 110.731 46.5402 107.5 47.5C105.691 52.733 104.191 58.0663 103 63.5C100.959 64.4231 98.7925 64.7564 96.5 64.5C96.7899 60.0638 96.2899 55.7305 95 51.5C93.5589 52.2598 92.0589 52.9264 90.5 53.5C89.8659 55.5668 88.8659 57.4002 87.5 59C84.7115 59.1345 82.0449 58.8011 79.5 58C65.1721 64.4908 51.8387 72.4908 39.5 82C36.6223 84.7087 33.9557 87.542 31.5 90.5C45.3081 99.6078 60.3081 106.108 76.5 110C83.1245 111.347 88.2912 109.18 92 103.5C100.776 87.1738 106.776 69.8405 110 51.5C111.993 50.086 114.16 49.086 116.5 48.5C116.5 51.5 116.5 54.5 116.5 57.5C112.923 73.7247 107.423 89.3914 100 104.5C96.1912 110.151 91.3579 114.484 85.5 117.5C82.1667 117.5 78.8333 117.5 75.5 117.5C58.2006 113.024 41.8672 106.024 26.5 96.5C22.7505 99.663 20.9172 103.663 21 108.5C22.5793 110.041 24.4127 111.208 26.5 112C32.1496 112.965 37.8162 113.798 43.5 114.5C44.1667 114.833 44.8333 115.167 45.5 115.5C43.7086 116.17 42.0419 116.837 40.5 117.5C33.1667 117.5 25.8333 117.5 18.5 117.5C14.1747 115.188 12.1748 111.522 12.5 106.5C12.5291 100.276 14.8625 95.1096 19.5 91C14.395 85.6131 10.7283 79.4464 8.5 72.5C8.5 67.8333 8.5 63.1667 8.5 58.5C15.7895 37.6796 30.4561 28.8463 52.5 32C58.0266 23.301 65.6932 17.4677 75.5 14.5Z" fill="#EA5D65"/>
</g>
<path d="M181.742 107H163.617L191.234 27H213.031L240.609 107H222.484L202.445 45.2812H201.82L181.742 107ZM180.609 75.5547H223.422V88.7578H180.609V75.5547ZM250.248 107V47H266.889V107H250.248ZM258.607 39.2656C256.133 39.2656 254.011 38.4453 252.24 36.8047C250.495 35.138 249.623 33.1458 249.623 30.8281C249.623 28.5365 250.495 26.5703 252.24 24.9297C254.011 23.263 256.133 22.4297 258.607 22.4297C261.081 22.4297 263.191 23.263 264.936 24.9297C266.706 26.5703 267.592 28.5365 267.592 30.8281C267.592 33.1458 266.706 35.138 264.936 36.8047C263.191 38.4453 261.081 39.2656 258.607 39.2656ZM280.219 107V47H296.352V57.4687H296.977C298.07 53.7448 299.906 50.9323 302.484 49.0313C305.063 47.1042 308.031 46.1406 311.391 46.1406C312.224 46.1406 313.122 46.1927 314.086 46.2969C315.049 46.401 315.896 46.5443 316.625 46.7266V61.4922C315.844 61.2578 314.763 61.0495 313.383 60.8672C312.003 60.6849 310.74 60.5938 309.594 60.5938C307.146 60.5938 304.958 61.1276 303.031 62.1953C301.13 63.237 299.62 64.6953 298.5 66.5703C297.406 68.4453 296.859 70.6068 296.859 73.0547V107H280.219ZM337.328 129.5C335.219 129.5 333.24 129.331 331.391 128.992C329.568 128.68 328.057 128.276 326.859 127.781L330.609 115.359C332.563 115.958 334.32 116.284 335.883 116.336C337.471 116.388 338.839 116.023 339.984 115.242C341.156 114.461 342.107 113.133 342.836 111.258L343.813 108.719L322.289 47H339.789L352.211 91.0625H352.836L365.375 47H382.992L359.672 113.484C358.552 116.714 357.029 119.526 355.102 121.922C353.201 124.344 350.792 126.206 347.875 127.508C344.958 128.836 341.443 129.5 337.328 129.5ZM391.82 107V27H408.461V57.0781H408.969C409.698 55.4635 410.753 53.8229 412.133 52.1562C413.539 50.4635 415.362 49.0573 417.602 47.9375C419.867 46.7917 422.68 46.2188 426.039 46.2188C430.414 46.2188 434.451 47.3646 438.148 49.6563C441.846 51.9219 444.802 55.3464 447.016 59.9297C449.229 64.487 450.336 70.2031 450.336 77.0781C450.336 83.7708 449.255 89.4219 447.094 94.0312C444.958 98.6146 442.042 102.091 438.344 104.461C434.672 106.805 430.557 107.977 426 107.977C422.771 107.977 420.023 107.443 417.758 106.375C415.518 105.307 413.682 103.966 412.25 102.352C410.818 100.711 409.724 99.0573 408.969 97.3906H408.227V107H391.82ZM408.109 77C408.109 80.5677 408.604 83.6797 409.594 86.3359C410.583 88.9922 412.016 91.0625 413.891 92.5469C415.766 94.0052 418.044 94.7344 420.727 94.7344C423.435 94.7344 425.727 93.9922 427.602 92.5078C429.477 90.9974 430.896 88.9141 431.859 86.2578C432.849 83.5755 433.344 80.4896 433.344 77C433.344 73.5365 432.862 70.4896 431.898 67.8594C430.935 65.2292 429.516 63.1719 427.641 61.6875C425.766 60.2031 423.461 59.4609 420.727 59.4609C418.018 59.4609 415.727 60.1771 413.852 61.6094C412.003 63.0417 410.583 65.0729 409.594 67.7031C408.604 70.3333 408.109 73.4323 408.109 77ZM478.549 108.133C474.721 108.133 471.309 107.469 468.314 106.141C465.32 104.786 462.95 102.794 461.205 100.164C459.486 97.5078 458.627 94.2005 458.627 90.2422C458.627 86.9089 459.239 84.1094 460.463 81.8437C461.687 79.5781 463.354 77.7552 465.463 76.375C467.572 74.9948 469.968 73.9531 472.65 73.25C475.359 72.5469 478.197 72.0521 481.166 71.7656C484.656 71.401 487.468 71.0625 489.604 70.75C491.739 70.4115 493.288 69.9167 494.252 69.2656C495.215 68.6146 495.697 67.651 495.697 66.375V66.1406C495.697 63.6667 494.916 61.7526 493.354 60.3984C491.817 59.0443 489.63 58.3672 486.791 58.3672C483.796 58.3672 481.413 59.0312 479.643 60.3594C477.872 61.6615 476.7 63.3021 476.127 65.2812L460.736 64.0312C461.518 60.3854 463.054 57.2344 465.346 54.5781C467.637 51.8958 470.593 49.8385 474.213 48.4062C477.859 46.9479 482.077 46.2188 486.869 46.2188C490.202 46.2188 493.393 46.6094 496.439 47.3906C499.512 48.1719 502.234 49.3828 504.604 51.0234C506.999 52.6641 508.887 54.7734 510.268 57.3516C511.648 59.9036 512.338 62.9635 512.338 66.5312V107H496.557V98.6797H496.088C495.124 100.555 493.835 102.208 492.221 103.641C490.606 105.047 488.666 106.154 486.4 106.961C484.135 107.742 481.518 108.133 478.549 108.133ZM483.314 96.6484C485.762 96.6484 487.924 96.1667 489.799 95.2031C491.674 94.2135 493.145 92.8854 494.213 91.2188C495.281 89.5521 495.814 87.6641 495.814 85.5547V79.1875C495.294 79.526 494.577 79.8385 493.666 80.125C492.781 80.3854 491.778 80.6328 490.658 80.8672C489.538 81.0755 488.419 81.2708 487.299 81.4531C486.179 81.6094 485.163 81.7526 484.252 81.8828C482.299 82.1693 480.593 82.625 479.135 83.25C477.676 83.875 476.544 84.7214 475.736 85.7891C474.929 86.8307 474.525 88.1328 474.525 89.6953C474.525 91.9609 475.346 93.6927 476.986 94.8906C478.653 96.0625 480.762 96.6484 483.314 96.6484ZM533.373 129.5C531.264 129.5 529.285 129.331 527.436 128.992C525.613 128.68 524.102 128.276 522.904 127.781L526.654 115.359C528.607 115.958 530.365 116.284 531.928 116.336C533.516 116.388 534.883 116.023 536.029 115.242C537.201 114.461 538.152 113.133 538.881 111.258L539.857 108.719L518.334 47H535.834L548.256 91.0625H548.881L561.42 47H579.037L555.717 113.484C554.597 116.714 553.074 119.526 551.146 121.922C549.245 124.344 546.837 126.206 543.92 127.508C541.003 128.836 537.488 129.5 533.373 129.5Z" fill="white"/>
<defs>
<clipPath id="clip0_1_6">
<rect width="108" height="103" fill="white" transform="translate(9 15)"/>
</clipPath>
</defs>
</svg>
