<svg width="172" height="25" viewBox="0 0 172 25" fill="none" xmlns="http://www.w3.org/2000/svg">
<g clip-path="url(#clip0_1_10)">
<path fill-rule="evenodd" clip-rule="evenodd" d="M0 4.08008V22.5189H7.96527H10.3544H13.7449V20.0409H2.38368V14.4877H12.0581V12.0472H2.38368V6.51047H13.7449V4.08008H0Z" fill="white"/>
<path fill-rule="evenodd" clip-rule="evenodd" d="M36.97 4.08008V22.5189H50.7148V20.0409H39.3536V14.4877H49.028V12.0472H39.3536V6.51047H50.7148V4.08008H36.97Z" fill="white"/>
<path fill-rule="evenodd" clip-rule="evenodd" d="M30.7294 4.08008L25.1195 19.2312L19.5092 4.08008H17.0621L23.8896 22.5189H23.9022H26.3367H26.3493L33.1768 4.08008H30.7294Z" fill="white"/>
<mask id="mask0_1_10" style="mask-type:alpha" maskUnits="userSpaceOnUse" x="54" y="4" width="16" height="19">
<path fill-rule="evenodd" clip-rule="evenodd" d="M54.172 4.11401H69.2633V22.2062H54.172V4.11401Z" fill="white"/>
</mask>
<g mask="url(#mask0_1_10)">
<path fill-rule="evenodd" clip-rule="evenodd" d="M56.5608 6.51227H63.4086C64.9041 6.51227 66.1208 7.73093 66.1208 9.2286C66.1208 10.7263 64.9041 11.9447 63.4086 11.9447H56.5608V6.51227ZM66.5927 22.2062H69.2633L64.5062 14.2225C66.7964 13.7182 68.5155 11.6712 68.5155 9.2286C68.5155 6.40832 66.2247 4.11401 63.4086 4.11401H55.3663V4.11766H54.172V22.1697H56.5608V14.3429H61.9067L66.5927 22.2062Z" fill="white"/>
</g>
<path fill-rule="evenodd" clip-rule="evenodd" d="M169.947 4.23314V18.7272L160.216 4.23314H160.075H157.686V22.2851H160.075V7.79164L169.806 22.2851H169.947H172.336V4.23314H169.947Z" fill="white"/>
<path fill-rule="evenodd" clip-rule="evenodd" d="M116.194 13.8156C115.602 13.2574 114.665 12.7635 113.34 12.3098C113.213 12.2659 113.077 12.2203 112.93 12.174L112.901 12.165C111.764 11.8357 110.637 11.4932 109.554 11.1465C108.776 10.861 108.189 10.545 107.806 10.2067L107.729 10.143C107.549 10.009 107.412 9.86364 107.323 9.71094C106.96 9.09204 107.09 8.18054 107.632 7.54354C107.953 7.16684 108.353 6.89704 108.856 6.71854L108.87 6.71314C110.039 6.28174 111.828 6.29134 113.032 6.73594C113.603 6.94684 114.026 7.23234 114.289 7.58564L114.346 7.65594C114.701 8.06394 115.027 8.82404 115.024 9.66894H117.419C117.42 8.35954 116.965 7.03524 116.181 6.11464C115.637 5.40134 114.857 4.85394 113.86 4.48564C112.132 3.84744 109.743 3.83724 108.049 4.46104C107.155 4.77944 106.401 5.29264 105.81 5.98724C104.608 7.39934 104.381 9.42974 105.258 10.9247C105.502 11.3424 105.838 11.7155 106.257 12.0358C106.873 12.5706 107.691 13.0194 108.756 13.4082L108.801 13.4232C109.909 13.7778 111.059 14.1287 112.222 14.4652C112.339 14.5024 112.45 14.5391 112.559 14.577C113.887 15.0318 114.389 15.3996 114.57 15.5786L114.624 15.6321L114.685 15.6784C115.029 15.9404 115.274 16.2612 115.414 16.6302C115.649 17.2515 115.546 18.0717 115.163 18.6234L115.148 18.645C114.862 19.0764 114.438 19.4183 113.851 19.6887C113.811 19.7068 113.771 19.7254 113.731 19.7422L113.712 19.7506C112.261 20.4002 109.871 20.2259 108.621 19.6575C107.909 19.3438 107.386 18.9208 107.025 18.3638C106.684 17.8404 106.455 17.1368 106.4 16.4662H104C104.057 17.6012 104.42 18.755 105.018 19.6731C105.633 20.6189 106.52 21.352 107.644 21.8471C108.614 22.2876 109.989 22.564 111.39 22.564C112.54 22.564 113.707 22.3777 114.68 21.9445C114.738 21.9192 114.796 21.8934 114.853 21.867C115.837 21.4133 116.606 20.7788 117.137 19.9814C117.963 18.782 118.166 17.1343 117.653 15.7787C117.36 15.0066 116.869 14.3462 116.194 13.8156Z" fill="white"/>
<path fill-rule="evenodd" clip-rule="evenodd" d="M133.516 16.4829C133.334 17.4948 132.62 18.4142 131.944 18.9808C130.995 19.777 129.985 20.164 128.854 20.164C127.677 20.164 126.654 19.7668 125.726 18.9508C124.998 18.3108 124.475 17.5537 124.128 16.6385C123.766 15.6855 123.583 14.6394 123.583 13.5295C123.583 11.0689 124.105 9.23554 125.135 8.08004C126.143 6.94864 127.367 6.39814 128.876 6.39814C129.845 6.39814 130.739 6.66974 131.609 7.22924C132.781 7.98154 133.231 9.06854 133.398 9.66884H135.844C135.726 8.95374 135.181 6.67394 132.902 5.21024C131.652 4.40684 130.297 4.00004 128.876 4.00004C126.676 4.00004 124.816 4.83584 123.348 6.48354C121.915 8.09154 121.189 10.4626 121.189 13.5295C121.189 14.9314 121.424 16.2642 121.889 17.49C122.372 18.7627 123.131 19.8605 124.146 20.7534C125.511 21.9534 127.095 22.5621 128.854 22.5621C130.547 22.5621 132.104 21.9756 133.482 20.8189C134.025 20.3634 135.716 18.7711 135.933 16.4829H133.516Z" fill="white"/>
<path fill-rule="evenodd" clip-rule="evenodd" d="M143.6 14.2134L146.183 7.39214L148.766 14.2134H143.6ZM151.837 22.3225H154.226L147.379 4.24054H147.377H144.99H144.988L138.141 22.3225H140.529L142.747 16.4662H149.619L151.837 22.3225Z" fill="white"/>
<path fill-rule="evenodd" clip-rule="evenodd" d="M96 13C96 17.9706 91.9704 22 87 22C82.0293 22 78 17.9706 78 13C78 8.02944 82.0293 4 87 4C88.2424 4 89.4264 4.25182 90.5032 4.70726C93.733 6.0735 96 9.27213 96 13Z" stroke="#00FF00" stroke-width="3.31562"/>
<path d="M87 4V22" stroke="#FF0000" stroke-width="3.31562"/>
<path d="M78 13H96" stroke="#0000FF" stroke-width="3.31562"/>
</g>
<defs>
<clipPath id="clip0_1_10">
<rect width="172" height="25" fill="white"/>
</clipPath>
</defs>
</svg>
