<svg width="508" height="150" viewBox="0 0 508 150" fill="none" xmlns="http://www.w3.org/2000/svg">
<g clip-path="url(#clip0_3_2)">
<mask id="mask0_3_2" style="mask-type:luminance" maskUnits="userSpaceOnUse" x="0" y="0" width="883" height="150">
<path d="M883 0H0V150H883V0Z" fill="white"/>
</mask>
<g mask="url(#mask0_3_2)">
<mask id="mask1_3_2" style="mask-type:luminance" maskUnits="userSpaceOnUse" x="0" y="5" width="884" height="140">
<path d="M883.161 5H0V145H883.161V5Z" fill="white"/>
</mask>
<g mask="url(#mask1_3_2)">
<path d="M69.999 145C100.673 145 117.725 145 128.862 133.863C139.999 122.726 139.999 105.684 139.999 75C139.999 44.3157 139.999 27.2739 128.862 16.1369C117.725 5 100.673 5 69.999 5C39.3248 5 22.2729 5 11.136 16.1369C-0.000976562 27.2739 -0.000976562 44.3258 -0.000976562 75C-0.000976562 105.674 -0.000976562 122.726 11.136 133.863C22.2729 145 39.3248 145 69.999 145Z" fill="black"/>
<path fill-rule="evenodd" clip-rule="evenodd" d="M75.2392 57.4469C77.4755 57.4469 79.2883 55.8136 79.2883 53.7989C79.2883 51.7841 77.4755 50.1509 75.2392 50.1509C73.0029 50.1509 71.1901 51.7841 71.1901 53.7989C71.1901 55.8136 73.0029 57.4469 75.2392 57.4469ZM62.3103 66.5083L64.2524 61.1619H77.8416L70.9696 85.383L81.1647 78.3205L84.1704 82.7377L73.9626 89.6631C69.4743 92.6307 64.2143 88.8177 65.5597 83.7709L70.2791 66.4626L62.3103 66.5083ZM87.0836 70.2807C87.0836 65.244 91.0083 61.1619 96.2962 61.1619H110.147V90.0464H104.295V79.3486H99.5203L93.1407 90.0464H86.1316L93.6357 78.5515C89.975 77.6021 87.0836 74.3933 87.0836 70.2807ZM93.2042 70.4203C93.2042 72.5731 94.6943 74.4618 97.101 74.4618H104.303V66.2163H97.101C94.57 66.2163 93.2042 68.2675 93.2042 70.4203ZM54.5884 54.4483V84.7137H58.6502V97.9146H52.9586V90.0982H31.6697V97.9019H25.9756V84.7011H28.6361C29.9333 82.9012 32.1343 78.2022 32.1343 70.6015V54.4483H54.5884ZM37.7954 59.8175V70.269C37.7954 77.2629 35.8914 82.5991 34.6094 84.696H48.7496V59.8175H37.7954Z" fill="white"/>
<path d="M228.648 67.0238C243.281 67.0238 252.561 74.8758 252.561 87.5461C252.561 100.216 243.281 108.247 228.648 108.247H199.738V40.4339H247.029V50.4274H210.981V67.0238H228.648ZM227.22 98.6104C236.5 98.6104 240.962 94.8628 240.962 87.5461C240.962 80.2295 236.5 76.3034 227.22 76.3034H210.981V98.6104H227.22ZM263.761 47.2152V36.5079H275.539V47.2152H263.761ZM264.296 108.247V54.7103H275.004V108.247H264.296ZM320.645 80.5864C326.713 82.5494 329.925 87.0108 329.925 93.0782C329.925 102.536 320.824 109.139 307.261 109.139C296.197 109.139 287.81 103.786 284.241 94.8628L293.163 90.9368C296.019 97.0043 301.015 100.216 307.44 100.216C314.578 100.216 319.039 97.3612 319.039 92.5429C319.039 88.0815 315.113 85.2262 308.51 85.2262H301.729V76.8388H308.154C313.864 76.8388 317.076 74.162 317.076 69.8791C317.076 65.2392 313.507 62.5624 307.618 62.5624C301.551 62.5624 297.089 65.5961 294.769 71.1282L286.025 66.4884C289.773 58.6364 297.803 53.8181 307.975 53.8181C319.753 53.8181 327.427 59.8856 327.605 69.3437C327.605 74.5189 325.285 78.2665 320.645 80.5864ZM376.281 54.7103H386.988V108.247H376.281V85.7616H350.226V108.247H339.519V54.7103H350.226V76.125H376.281V54.7103ZM408.717 84.8693C409.966 94.149 415.855 100.038 425.313 100.038C433.165 100.038 438.162 97.0043 441.196 93.0782L448.512 99.5026C444.051 104.856 436.556 109.139 425.313 109.139C407.646 109.139 398.009 97.3612 398.009 81.4786C398.009 65.0608 408.717 53.8181 424.421 53.8181C440.125 53.8181 450.297 64.7038 450.297 81.4786C450.297 82.7278 450.297 83.6201 449.94 84.8693H408.717ZM424.421 62.7408C416.033 62.7408 410.501 68.0945 408.895 76.6604H439.411C437.983 67.916 432.451 62.7408 424.421 62.7408ZM483.804 109.139C467.921 109.139 457.035 97.8965 457.035 81.4786C457.035 65.0608 467.921 53.8181 483.804 53.8181C495.403 53.8181 504.683 59.7071 507.717 69.8791L497.545 73.0912C495.225 66.8453 490.406 62.9193 483.804 62.9193C473.989 62.9193 467.921 70.236 467.921 81.4786C467.921 92.7213 473.989 100.038 483.804 100.038C490.228 100.038 495.225 96.112 497.545 89.866L507.717 93.0782C504.683 103.25 495.225 109.139 483.804 109.139Z" fill="white"/>
</g>
</g>
</g>
<defs>
<clipPath id="clip0_3_2">
<rect width="508" height="150" fill="white"/>
</clipPath>
</defs>
</svg>
