<svg width="236" height="24" viewBox="0 0 236 24" fill="none" xmlns="http://www.w3.org/2000/svg">
<path d="M192.6 0H169V4.2H188.2V10H171.5V14.1H188.2V19.9H169V24H192.6V0Z" fill="#00BCD4"/>
<path d="M44.4 0H68V4.2H48.8V10H65.5V14.1H48.8V19.9H68V24H44.4V0Z" fill="#00BCD4"/>
<path d="M79.9 0L89.3 24H92.7L99.5 6.8L106.3 24H109.7L119.1 0H114.3L108.1 16L101.7 0H97.3L91 16L84.6 0H79.9Z" fill="#00BCD4"/>
<path d="M130.2 0V1.1L139.9 12L130.2 22.9V24H135.3L142.9 15.4L150.6 24H155.7V22.9L145.9 12L155.7 1.1V0H150.6L142.9 8.5L135.3 0H130.2Z" fill="#00BCD4"/>
<path d="M212.1 0V24H235.7V19.9H216.5V0H212.1Z" fill="#00BCD4"/>
<path d="M21.1 0V18L5.1 0H0V24H4.4V6.3L20.4 24H25.5V0H21.1Z" fill="#00BCD4"/>
</svg>
