<svg width="672" height="133" viewBox="0 0 672 133" fill="none" xmlns="http://www.w3.org/2000/svg">
<g clip-path="url(#clip0_1_6)">
<path opacity="0.953" fill-rule="evenodd" clip-rule="evenodd" d="M20 15C25.3333 15 30.6667 15 36 15C40.0661 16.8694 44.0661 19.0361 48 21.5C51.4109 24.9838 54.0775 28.9838 56 33.5C48.8645 41.6365 41.3645 49.4698 33.5 57C28.6898 53.0338 24.8564 48.3672 22 43C22.0894 38.0771 24.5894 35.7438 29.5 36C31.6454 35.896 33.4788 36.5627 35 38C40.1568 35.8152 40.8235 32.9819 37 29.5C26.4642 25.3488 18.9642 28.5155 14.5 39C13.3895 44.1111 14.3895 48.7777 17.5 53C22.5115 57.3466 27.5115 61.6799 32.5 66C47.5732 50.9268 62.7399 35.7601 78 20.5C81.5167 18.1738 85.1834 16.3405 89 15C93.3333 15 97.6667 15 102 15C114.333 18.6667 122.333 26.6667 126 39C126 43 126 47 126 51C124.66 54.8166 122.826 58.4833 120.5 62C102.188 81.1462 83.6876 100.146 65 119C64.6667 119 64.3333 119 64 119C55.481 109.981 46.8144 101.148 38 92.5C55 75.5 72 58.5 89 41.5C93.1328 36.4349 97.6328 35.9349 102.5 40C103.922 42.5301 104.255 45.1967 103.5 48C88.3041 62.862 73.4708 78.0286 59 93.5C61.1238 94.6217 62.9571 96.1217 64.5 98C79.1667 83.3333 93.8333 68.6667 108.5 54C114.448 40.8966 110.448 32.5633 96.5 29C93.9803 29.7066 91.4803 30.54 89 31.5C69.8478 49.8185 50.8478 68.3185 32 87C22.6808 78.1811 13.5142 69.1811 4.5 60C2.95406 56.9081 1.45406 53.9081 0 51C0 46 0 41 0 36C3.26672 25.7339 9.93338 18.7339 20 15Z" fill="#E9008E"/>
</g>
<path d="M167.953 107V27H199.516C205.583 27 210.753 28.1589 215.023 30.4766C219.294 32.7682 222.549 35.9583 224.789 40.0469C227.055 44.1094 228.188 48.7969 228.188 54.1094C228.188 59.4219 227.042 64.1094 224.75 68.1719C222.458 72.2344 219.138 75.3984 214.789 77.6641C210.466 79.9297 205.232 81.0625 199.086 81.0625H178.969V67.5078H196.352C199.607 67.5078 202.289 66.9479 204.398 65.8281C206.534 64.6823 208.122 63.1068 209.164 61.1016C210.232 59.0703 210.766 56.7396 210.766 54.1094C210.766 51.4531 210.232 49.1354 209.164 47.1562C208.122 45.151 206.534 43.6016 204.398 42.5078C202.263 41.388 199.555 40.8281 196.273 40.8281H184.867V107H167.953ZM238.861 107V47H255.502V107H238.861ZM247.221 39.2656C244.747 39.2656 242.624 38.4453 240.854 36.8047C239.109 35.138 238.236 33.1458 238.236 30.8281C238.236 28.5365 239.109 26.5703 240.854 24.9297C242.624 23.263 244.747 22.4297 247.221 22.4297C249.695 22.4297 251.804 23.263 253.549 24.9297C255.32 26.5703 256.205 28.5365 256.205 30.8281C256.205 33.1458 255.32 35.138 253.549 36.8047C251.804 38.4453 249.695 39.2656 247.221 39.2656ZM295.941 108.172C289.796 108.172 284.509 106.87 280.082 104.266C275.681 101.635 272.296 97.9896 269.926 93.3281C267.582 88.6667 266.41 83.3021 266.41 77.2344C266.41 71.0885 267.595 65.6979 269.965 61.0625C272.361 56.401 275.759 52.7682 280.16 50.1641C284.561 47.5339 289.796 46.2188 295.863 46.2188C301.098 46.2188 305.681 47.1693 309.613 49.0703C313.546 50.9714 316.658 53.6406 318.949 57.0781C321.241 60.5156 322.504 64.5521 322.738 69.1875H307.035C306.592 66.1927 305.421 63.7839 303.52 61.9609C301.645 60.112 299.184 59.1875 296.137 59.1875C293.559 59.1875 291.306 59.8906 289.379 61.2969C287.478 62.6771 285.993 64.6953 284.926 67.3516C283.858 70.0078 283.324 73.224 283.324 77C283.324 80.8281 283.845 84.0833 284.887 86.7656C285.954 89.4479 287.452 91.4922 289.379 92.8984C291.306 94.3047 293.559 95.0078 296.137 95.0078C298.038 95.0078 299.743 94.6172 301.254 93.8359C302.79 93.0547 304.053 91.9219 305.043 90.4375C306.059 88.9271 306.723 87.1172 307.035 85.0078H322.738C322.478 89.5911 321.228 93.6276 318.988 97.1172C316.775 100.581 313.715 103.289 309.809 105.242C305.902 107.195 301.28 108.172 295.941 108.172ZM348.471 89.7344L348.51 69.7734H350.932L370.15 47H389.252L363.432 77.1563H359.486L348.471 89.7344ZM333.393 107V27H350.033V107H333.393ZM370.893 107L353.236 80.8672L364.33 69.1094L390.385 107H370.893ZM397.729 107V27H414.369V57.0781H414.877C415.606 55.4635 416.661 53.8229 418.041 52.1562C419.447 50.4635 421.27 49.0573 423.51 47.9375C425.775 46.7917 428.588 46.2188 431.947 46.2188C436.322 46.2188 440.359 47.3646 444.057 49.6563C447.755 51.9219 450.71 55.3464 452.924 59.9297C455.137 64.487 456.244 70.2031 456.244 77.0781C456.244 83.7708 455.163 89.4219 453.002 94.0312C450.867 98.6146 447.95 102.091 444.252 104.461C440.58 106.805 436.465 107.977 431.908 107.977C428.679 107.977 425.932 107.443 423.666 106.375C421.426 105.307 419.59 103.966 418.158 102.352C416.726 100.711 415.632 99.0573 414.877 97.3906H414.135V107H397.729ZM414.018 77C414.018 80.5677 414.512 83.6797 415.502 86.3359C416.492 88.9922 417.924 91.0625 419.799 92.5469C421.674 94.0052 423.952 94.7344 426.635 94.7344C429.343 94.7344 431.635 93.9922 433.51 92.5078C435.385 90.9974 436.804 88.9141 437.768 86.2578C438.757 83.5755 439.252 80.4896 439.252 77C439.252 73.5365 438.77 70.4896 437.807 67.8594C436.843 65.2292 435.424 63.1719 433.549 61.6875C431.674 60.2031 429.369 59.4609 426.635 59.4609C423.926 59.4609 421.635 60.1771 419.76 61.6094C417.911 63.0417 416.492 65.0729 415.502 67.7031C414.512 70.3333 414.018 73.4323 414.018 77ZM467.348 107V47H483.48V57.4687H484.105C485.199 53.7448 487.035 50.9323 489.613 49.0313C492.191 47.1042 495.16 46.1406 498.52 46.1406C499.353 46.1406 500.251 46.1927 501.215 46.2969C502.178 46.401 503.025 46.5443 503.754 46.7266V61.4922C502.973 61.2578 501.892 61.0495 500.512 60.8672C499.132 60.6849 497.868 60.5938 496.723 60.5938C494.275 60.5938 492.087 61.1276 490.16 62.1953C488.259 63.237 486.749 64.6953 485.629 66.5703C484.535 68.4453 483.988 70.6068 483.988 73.0547V107H467.348ZM512.357 107V47H528.998V107H512.357ZM520.717 39.2656C518.243 39.2656 516.12 38.4453 514.35 36.8047C512.605 35.138 511.732 33.1458 511.732 30.8281C511.732 28.5365 512.605 26.5703 514.35 24.9297C516.12 23.263 518.243 22.4297 520.717 22.4297C523.191 22.4297 525.3 23.263 527.045 24.9297C528.816 26.5703 529.701 28.5365 529.701 30.8281C529.701 33.1458 528.816 35.138 527.045 36.8047C525.3 38.4453 523.191 39.2656 520.717 39.2656ZM564.438 107.977C559.88 107.977 555.753 106.805 552.055 104.461C548.383 102.091 545.466 98.6146 543.305 94.0312C541.169 89.4219 540.102 83.7708 540.102 77.0781C540.102 70.2031 541.208 64.487 543.422 59.9297C545.635 55.3464 548.578 51.9219 552.25 49.6563C555.948 47.3646 559.997 46.2188 564.398 46.2188C567.758 46.2188 570.557 46.7917 572.797 47.9375C575.063 49.0573 576.885 50.4635 578.266 52.1562C579.672 53.8229 580.74 55.4635 581.469 57.0781H581.977V27H598.578V107H582.172V97.3906H581.469C580.688 99.0573 579.581 100.711 578.148 102.352C576.742 103.966 574.906 105.307 572.641 106.375C570.401 107.443 567.667 107.977 564.438 107.977ZM569.711 94.7344C572.393 94.7344 574.659 94.0052 576.508 92.5469C578.383 91.0625 579.815 88.9922 580.805 86.3359C581.82 83.6797 582.328 80.5677 582.328 77C582.328 73.4323 581.833 70.3333 580.844 67.7031C579.854 65.0729 578.422 63.0417 576.547 61.6094C574.672 60.1771 572.393 59.4609 569.711 59.4609C566.977 59.4609 564.672 60.2031 562.797 61.6875C560.922 63.1719 559.503 65.2292 558.539 67.8594C557.576 70.4896 557.094 73.5365 557.094 77C557.094 80.4896 557.576 83.5755 558.539 86.2578C559.529 88.9141 560.948 90.9974 562.797 92.5078C564.672 93.9922 566.977 94.7344 569.711 94.7344ZM639.604 108.172C633.432 108.172 628.119 106.922 623.666 104.422C619.239 101.896 615.827 98.3281 613.432 93.7187C611.036 89.0833 609.838 83.6016 609.838 77.2734C609.838 71.1016 611.036 65.6849 613.432 61.0234C615.827 56.362 619.2 52.7292 623.549 50.125C627.924 47.5208 633.054 46.2188 638.939 46.2188C642.898 46.2188 646.583 46.8568 649.994 48.1328C653.432 49.3828 656.426 51.2708 658.979 53.7969C661.557 56.3229 663.562 59.5 664.994 63.3281C666.426 67.1302 667.143 71.5833 667.143 76.6875V81.2578H616.479V70.9453H651.479C651.479 68.5495 650.958 66.4271 649.916 64.5781C648.874 62.7292 647.429 61.2839 645.58 60.2422C643.757 59.1745 641.635 58.6406 639.213 58.6406C636.687 58.6406 634.447 59.2266 632.494 60.3984C630.567 61.5443 629.057 63.0937 627.963 65.0469C626.869 66.974 626.309 69.1224 626.283 71.4922V81.2969C626.283 84.2656 626.83 86.8307 627.924 88.9922C629.044 91.1536 630.619 92.8203 632.65 93.9922C634.682 95.1641 637.09 95.75 639.877 95.75C641.726 95.75 643.419 95.4896 644.955 94.9688C646.492 94.4479 647.807 93.6667 648.9 92.625C649.994 91.5833 650.827 90.3073 651.4 88.7969L666.791 89.8125C666.01 93.5104 664.408 96.7396 661.986 99.5C659.59 102.234 656.492 104.37 652.689 105.906C648.913 107.417 644.551 108.172 639.604 108.172Z" fill="white"/>
<defs>
<clipPath id="clip0_1_6">
<rect width="126" height="104" fill="white" transform="translate(0 15)"/>
</clipPath>
</defs>
</svg>
