<svg width="690" height="112" viewBox="0 0 690 112" fill="none" xmlns="http://www.w3.org/2000/svg">
<g clip-path="url(#clip0_3_27)">
<path d="M69.73 73.35C69.73 95.17 54.14 108.07 35.01 108.07C15.73 108.07 0 92.34 0 73.07H12.61C12.61 85.54 22.53 95.46 34.86 95.46C45.63 95.46 56.54 88.94 56.54 75.48C56.54 62.87 47.47 58.9 34.86 58.9C5.1 58.9 5.1 31.83 5.1 31.83C5.1 15.39 18.28 1.92999 34.86 1.92999C51.44 1.92999 64.62 15.39 64.62 31.83H51.72C51.72 22.48 44.07 14.82 34.86 14.82C25.93 14.82 18.28 21.9 17.71 30.69V32.53C17.71 33.66 17.85 34.8 18.13 35.79C19.12 39.76 22.67 46.14 34.85 46.14C69.73 46.14 69.73 73.07 69.73 73.35ZM154.75 32.25C154.75 48.26 141.71 61.3 125.7 61.3H97.78V106.93H85.02V3.05999H125.69C141.71 3.05999 154.75 16.1 154.75 32.25ZM142.14 32.25C142.14 23.18 134.77 15.81 125.7 15.81H97.64V48.69H125.7C134.77 48.69 142.14 41.32 142.14 32.25ZM180.2 3.19999V106.94H167.45V3.19999H180.2ZM263.5 94.33V106.94H193.63V3.05999H206.24V94.33H263.5ZM348.53 3.05999V107.08H322.59L292.26 6.31999H291.27V107.08H278.66V3.05999H304.6L334.93 103.82H335.92V3.05999H348.53ZM376.3 61.31V15.81H433.41V3.05999H363.68V106.94H433.55V94.33H376.3V61.31Z" fill="white"/>
</g>
<g clip-path="url(#clip1_3_27)">
<mask id="mask0_3_27" style="mask-type:luminance" maskUnits="userSpaceOnUse" x="449" y="0" width="241" height="112">
<path d="M689.161 0H449V111.701H689.161V0Z" fill="white"/>
</mask>
<g mask="url(#mask0_3_27)">
<path d="M500.183 -0.383987H473.057L449.265 111.317H462.897L485.936 3.12534H487.454L510.492 111.317H523.976L500.183 -0.383987Z" fill="white"/>
<path d="M579.225 62.2507L610.449 111.317H594.534L563.31 62.2507H549.371V111.317H535.728V-0.383987H579.225C596.35 -0.383987 610.29 13.632 610.29 31.008C610.29 48.224 596.35 62.2507 579.225 62.2507ZM549.222 48.6827H579.225C588.929 48.6827 596.806 40.7573 596.806 31.008C596.806 21.2587 588.929 13.3333 579.225 13.3333H549.222V48.6827Z" fill="white"/>
<path d="M689.427 13.3333H659.265V111.317H645.622V13.3333H614.855V-0.383987H689.416V13.3333H689.427Z" fill="white"/>
<path d="M502.084 49.0667H467.048V61.8667H502.084V49.0667Z" fill="white"/>
</g>
</g>
<rect x="374" y="48" width="100" height="14" fill="white"/>
<defs>
<clipPath id="clip0_3_27">
<rect width="433.55" height="110" fill="white"/>
</clipPath>
<clipPath id="clip1_3_27">
<rect width="241" height="112" fill="white" transform="translate(449)"/>
</clipPath>
</defs>
</svg>
